<mxfile host="65bd71144e">
    <diagram id="hx1HexMVzk6d0rv9TK2c" name="Page-1">
        <mxGraphModel dx="3438" dy="2298" grid="1" gridSize="10" guides="1" tooltips="1" connect="1" arrows="1" fold="1" page="1" pageScale="1" pageWidth="850" pageHeight="1100" math="0" shadow="0">
            <root>
                <mxCell id="0"/>
                <mxCell id="1" parent="0"/>
                <mxCell id="5" value="" style="shape=image;verticalLabelPosition=bottom;labelBackgroundColor=default;verticalAlign=top;aspect=fixed;imageAspect=0;image=https://upload.wikimedia.org/wikipedia/en/e/eb/Windows_95_at_first_run.png;" vertex="1" parent="1">
                    <mxGeometry x="-710" y="-330" width="640" height="480" as="geometry"/>
                </mxCell>
                <mxCell id="28" value="" style="group" vertex="1" connectable="0" parent="1">
                    <mxGeometry x="-860" y="210" width="800" height="440" as="geometry"/>
                </mxCell>
                <mxCell id="3" value="" style="rounded=0;whiteSpace=wrap;html=1;fillColor=#008282;strokeColor=none;" vertex="1" parent="28">
                    <mxGeometry width="800" height="440.00000000000006" as="geometry"/>
                </mxCell>
                <mxCell id="16" value="" style="rounded=0;whiteSpace=wrap;html=1;fillColor=#C3C3C3;strokeColor=default;" vertex="1" parent="28">
                    <mxGeometry x="172.3076923076923" y="25.882352941176475" width="443.0769230769231" height="336.47058823529414" as="geometry"/>
                </mxCell>
                <mxCell id="23" value="" style="rounded=0;whiteSpace=wrap;html=1;strokeColor=none;fillColor=#000082;" vertex="1" parent="28">
                    <mxGeometry x="172.3076923076923" y="27.176470588235297" width="439.38461538461536" height="25.882352941176475" as="geometry"/>
                </mxCell>
                <mxCell id="6" value="" style="rounded=0;whiteSpace=wrap;html=1;fillColor=#C3C3C3;strokeColor=none;" vertex="1" parent="28">
                    <mxGeometry y="401.17647058823536" width="800" height="38.82352941176471" as="geometry"/>
                </mxCell>
                <mxCell id="8" value="" style="rounded=0;whiteSpace=wrap;html=1;strokeColor=#000000;fillColor=#C3C3C3;" vertex="1" parent="28">
                    <mxGeometry x="12.307692307692307" y="405.0588235294118" width="61.53846153846153" height="32.352941176470594" as="geometry"/>
                </mxCell>
                <mxCell id="9" value="" style="endArrow=none;html=1;entryX=0;entryY=0;entryDx=0;entryDy=0;strokeColor=light-dark(#ffffff, #ededed);exitX=0;exitY=1;exitDx=0;exitDy=0;" edge="1" parent="28" source="8" target="8">
                    <mxGeometry width="50" height="50" relative="1" as="geometry">
                        <mxPoint x="11.076923076923077" y="440.00000000000006" as="sourcePoint"/>
                        <mxPoint x="160" y="388.2352941176471" as="targetPoint"/>
                    </mxGeometry>
                </mxCell>
                <mxCell id="10" value="" style="endArrow=none;html=1;entryX=0;entryY=0;entryDx=0;entryDy=0;strokeColor=light-dark(#ffffff, #ededed);exitX=1;exitY=0;exitDx=0;exitDy=0;" edge="1" parent="28" source="8" target="8">
                    <mxGeometry width="50" height="50" relative="1" as="geometry">
                        <mxPoint x="61.53846153846153" y="485.2941176470589" as="sourcePoint"/>
                        <mxPoint x="61.53846153846153" y="452.94117647058823" as="targetPoint"/>
                    </mxGeometry>
                </mxCell>
                <mxCell id="11" value="" style="endArrow=none;html=1;entryX=0;entryY=0.048;entryDx=0;entryDy=0;strokeColor=light-dark(#ffffff, #ededed);exitX=1.001;exitY=0.049;exitDx=0;exitDy=0;entryPerimeter=0;exitPerimeter=0;" edge="1" parent="28" source="6" target="6">
                    <mxGeometry width="50" height="50" relative="1" as="geometry">
                        <mxPoint x="86.15384615384615" y="418.00000000000006" as="sourcePoint"/>
                        <mxPoint x="24.615384615384613" y="418.00000000000006" as="targetPoint"/>
                    </mxGeometry>
                </mxCell>
                <mxCell id="12" value="" style="rounded=0;whiteSpace=wrap;html=1;fillColor=#C3C3C3;strokeColor=#878787;" vertex="1" parent="28">
                    <mxGeometry x="726.1538461538462" y="407.97058823529414" width="61.53846153846153" height="26.529411764705884" as="geometry"/>
                </mxCell>
                <mxCell id="13" value="" style="endArrow=none;html=1;entryX=1;entryY=0;entryDx=0;entryDy=0;exitX=1;exitY=1;exitDx=0;exitDy=0;strokeColor=#FAFAFA;" edge="1" parent="28" source="12" target="12">
                    <mxGeometry width="50" height="50" relative="1" as="geometry">
                        <mxPoint x="701.5384615384615" y="543.529411764706" as="sourcePoint"/>
                        <mxPoint x="763.076923076923" y="478.82352941176475" as="targetPoint"/>
                    </mxGeometry>
                </mxCell>
                <mxCell id="14" value="" style="endArrow=none;html=1;entryX=0;entryY=1;entryDx=0;entryDy=0;exitX=1;exitY=1;exitDx=0;exitDy=0;strokeColor=#FAFAFA;" edge="1" parent="28" source="12" target="12">
                    <mxGeometry width="50" height="50" relative="1" as="geometry">
                        <mxPoint x="800" y="447.764705882353" as="sourcePoint"/>
                        <mxPoint x="800" y="420.5882352941177" as="targetPoint"/>
                    </mxGeometry>
                </mxCell>
                <mxCell id="21" value="" style="endArrow=none;html=1;entryX=0;entryY=0;entryDx=0;entryDy=0;exitX=0;exitY=1;exitDx=0;exitDy=0;strokeColor=#FFFFFF;" edge="1" parent="28" source="16" target="16">
                    <mxGeometry width="50" height="50" relative="1" as="geometry">
                        <mxPoint x="283.0769230769231" y="181.17647058823533" as="sourcePoint"/>
                        <mxPoint x="344.6153846153846" y="116.47058823529413" as="targetPoint"/>
                    </mxGeometry>
                </mxCell>
                <mxCell id="22" value="" style="endArrow=none;html=1;exitX=1;exitY=0;exitDx=0;exitDy=0;strokeColor=#FFFFFF;entryX=0;entryY=0;entryDx=0;entryDy=0;" edge="1" parent="28" source="16" target="23">
                    <mxGeometry width="50" height="50" relative="1" as="geometry">
                        <mxPoint x="898.4615384615383" y="336.47058823529414" as="sourcePoint"/>
                        <mxPoint x="504.6153846153846" y="-25.882352941176475" as="targetPoint"/>
                    </mxGeometry>
                </mxCell>
                <mxCell id="24" value="" style="rounded=0;whiteSpace=wrap;html=1;fillColor=#C3C3C3;" vertex="1" parent="28">
                    <mxGeometry x="593.2307692307692" y="33.64705882352941" width="12.307692307692307" height="12.941176470588237" as="geometry"/>
                </mxCell>
                <mxCell id="25" value="" style="endArrow=none;html=1;entryX=0;entryY=0;entryDx=0;entryDy=0;exitX=0;exitY=1;exitDx=0;exitDy=0;strokeColor=#FFFFFF;" edge="1" parent="28" source="24" target="24">
                    <mxGeometry width="50" height="50" relative="1" as="geometry">
                        <mxPoint x="504.6153846153846" y="51.76470588235295" as="sourcePoint"/>
                        <mxPoint x="566.1538461538462" y="-12.941176470588237" as="targetPoint"/>
                    </mxGeometry>
                </mxCell>
                <mxCell id="26" value="" style="endArrow=none;html=1;entryX=0;entryY=0;entryDx=0;entryDy=0;exitX=1;exitY=0;exitDx=0;exitDy=0;strokeColor=#FFFFFF;" edge="1" parent="28" source="24" target="24">
                    <mxGeometry width="50" height="50" relative="1" as="geometry">
                        <mxPoint x="605.5384615384615" y="59.529411764705884" as="sourcePoint"/>
                        <mxPoint x="605.5384615384615" y="46.58823529411765" as="targetPoint"/>
                    </mxGeometry>
                </mxCell>
            </root>
        </mxGraphModel>
    </diagram>
</mxfile>